<svg id="Layer_1" enable-background="new 0 0 512 512" height="512" viewBox="0 0 512 512" width="512" xmlns="http://www.w3.org/2000/svg"><g><path d="m490.881 147.575v216.316c0 20.068-16.267 36.335-36.335 36.335h-397.093c-20.068 0-36.335-16.267-36.335-36.335v-216.316z" fill="#e19974"/><path d="m490.881 147.575v216.316c0 20.068-16.267 36.335-36.335 36.335h-397.093c-20.068 0-36.335-16.267-36.335-36.335v-216.316z" fill="#e19974"/><path d="m459.976 147.575v216.316c0 20.068-16.267 36.335-36.335 36.335h30.905c20.068 0 36.335-16.267 36.335-36.335v-216.316z" fill="#dc8758"/><path d="m383.742 147.575h41.207v252.651h-41.207z" fill="#d77f4a"/><path d="m185.948 147.575h41.207v252.651h-41.207z" fill="#d77f4a"/><path d="m21.119 204.491h469.763v41.207h-469.763z" fill="#dc8758"/><path d="m459.976 204.491h30.905v41.207h-30.905z" fill="#d77f4a"/><path d="m21.119 300.298h469.763v41.207h-469.763z" fill="#dc8758"/><g fill="#d77f4a"><path d="m459.976 300.298h30.905v41.207h-30.905z"/><path d="m87.05 147.575h41.207v252.651h-41.207z"/><path d="m284.845 147.575h41.207v252.651h-41.207z"/></g><path d="m505.819 163.284h-499.638c-3.414 0-6.181-2.767-6.181-6.181v-39.147c0-3.414 2.767-6.181 6.181-6.181h499.638c3.414 0 6.181 2.767 6.181 6.181v39.147c0 3.413-2.767 6.181-6.181 6.181z" fill="#dc8758"/><path d="m505.819 111.775h-30.905c3.414 0 6.181 2.767 6.181 6.181v39.147c0 3.414-2.767 6.181-6.181 6.181h30.905c3.414 0 6.181-2.767 6.181-6.181v-39.147c0-3.414-2.767-6.181-6.181-6.181z" fill="#d77f4a"/></g></svg>